<svg width="32" height="32" viewBox="0 0 32 32" fill="none" xmlns="http://www.w3.org/2000/svg">
<path d="M15.0533 27.5466C15.32 27.8133 15.6533 27.9333 16 27.9333C16.3467 27.9333 16.68 27.7999 16.9467 27.5466L26.9467 17.5466C30.08 14.4133 30.08 9.47993 26.9467 6.33326C23.88 3.29326 19.1467 3.19993 16 6.0666C12.8533 3.19993 8.12 3.27993 5.05334 6.33326C1.92001 9.47993 1.92001 14.4133 5.05334 17.5466L15.0533 27.5466ZM6.94667 8.21326C8 7.17326 9.33334 6.65326 10.68 6.65326C12.0267 6.65326 13.36 7.17326 14.4 8.21326L15.0667 8.87993C15.5867 9.39993 16.4267 9.39993 16.9467 8.87993L17.6133 8.21326C19.6933 6.13326 22.9733 6.13326 25.0667 8.21326C27.1467 10.3066 27.1467 13.5733 25.0667 15.6533L16.0133 24.7066L6.96 15.6533C6.46575 15.168 6.07316 14.5891 5.80516 13.9504C5.53716 13.3116 5.39913 12.6259 5.39913 11.9333C5.39913 11.2406 5.53716 10.5549 5.80516 9.91617C6.07316 9.27745 6.46575 8.69854 6.96 8.21326H6.94667Z" fill="#76113A"/>
</svg>
