<svg width="32" height="32" viewBox="0 0 32 32" fill="none" xmlns="http://www.w3.org/2000/svg">
<path d="M8.1775 27.9999C6.60683 27.9999 5.3335 26.6932 5.3335 25.0799V13.3439C5.3335 12.4572 5.72683 11.6172 6.40016 11.0639L14.2228 4.63988C14.7226 4.22599 15.3512 3.99951 16.0002 3.99951C16.6491 3.99951 17.2777 4.22599 17.7775 4.63988L25.5988 11.0639C26.2735 11.6172 26.6668 12.4572 26.6668 13.3439V25.0799C26.6668 26.6932 25.3935 27.9999 23.8228 27.9999H8.1775Z" stroke="#CECECE" stroke-width="3" stroke-linecap="round" stroke-linejoin="round"/>
<path d="M12.667 28V20.6667C12.667 19.9594 12.9479 19.2811 13.448 18.781C13.9481 18.281 14.6264 18 15.3337 18H16.667C17.3742 18 18.0525 18.281 18.5526 18.781C19.0527 19.2811 19.3337 19.9594 19.3337 20.6667V28" stroke="#CECECE" stroke-width="3" stroke-linecap="round" stroke-linejoin="round"/>
</svg>
