<svg width="32" height="32" viewBox="0 0 32 32" fill="none" xmlns="http://www.w3.org/2000/svg">
<path d="M8.17734 27.9999C6.60668 27.9999 5.33334 26.6932 5.33334 25.0799V13.3439C5.33334 12.4572 5.72668 11.6172 6.40001 11.0639L14.2227 4.63988C14.7225 4.22599 15.3511 3.99951 16 3.99951C16.6489 3.99951 17.2775 4.22599 17.7773 4.63988L25.5987 11.0639C26.2733 11.6172 26.6667 12.4572 26.6667 13.3439V25.0799C26.6667 26.6932 25.3933 27.9999 23.8227 27.9999H8.17734Z" stroke="#76113A" stroke-width="3" stroke-linecap="round" stroke-linejoin="round"/>
<path d="M12.6667 28V20.6667C12.6667 19.9594 12.9476 19.2811 13.4477 18.781C13.9478 18.281 14.6261 18 15.3334 18H16.6667C17.3739 18 18.0522 18.281 18.5523 18.781C19.0524 19.2811 19.3334 19.9594 19.3334 20.6667V28" stroke="#76113A" stroke-width="3" stroke-linecap="round" stroke-linejoin="round"/>
</svg>
