<svg width="25" height="27" viewBox="0 0 25 27" fill="none" xmlns="http://www.w3.org/2000/svg">
<path d="M4.344 25.5004C2.77333 25.5004 1.5 24.1937 1.5 22.5804V10.8444C1.5 9.9577 1.89333 9.1177 2.56667 8.56437L10.3893 2.14037C10.8891 1.72648 11.5177 1.5 12.1667 1.5C12.8156 1.5 13.4442 1.72648 13.944 2.14037L21.7653 8.56437C22.44 9.1177 22.8333 9.9577 22.8333 10.8444V22.5804C22.8333 24.1937 21.56 25.5004 19.9893 25.5004H4.344Z" stroke="#CECECE" stroke-width="3" stroke-linecap="round" stroke-linejoin="round"/>
<path d="M8.83333 25.5005V18.1672C8.83333 17.4599 9.11428 16.7816 9.61438 16.2815C10.1145 15.7814 10.7928 15.5005 11.5 15.5005H12.8333C13.5406 15.5005 14.2189 15.7814 14.7189 16.2815C15.219 16.7816 15.5 17.4599 15.5 18.1672V25.5005" stroke="#CECECE" stroke-width="3" stroke-linecap="round" stroke-linejoin="round"/>
</svg>
