<svg width="32" height="32" viewBox="0 0 32 32" fill="none" xmlns="http://www.w3.org/2000/svg">
<path d="M28 26.6664C28 27.02 27.8595 27.3592 27.6095 27.6092C27.3594 27.8593 27.0203 27.9997 26.6667 27.9997H5.33333C4.97971 27.9997 4.64057 27.8593 4.39052 27.6092C4.14048 27.3592 4 27.02 4 26.6664V12.6531C3.99986 12.4499 4.04616 12.2494 4.13535 12.0668C4.22455 11.8843 4.35429 11.7245 4.51467 11.5997L15.1813 3.30241C15.4154 3.12034 15.7035 3.02148 16 3.02148C16.2965 3.02148 16.5846 3.12034 16.8187 3.30241L27.4853 11.5997C27.6457 11.7245 27.7754 11.8843 27.8646 12.0668C27.9538 12.2494 28.0001 12.4499 28 12.6531V26.6664Z" fill="#76113A"/>
</svg>
